# Blender v2.83.5 OBJ File: ''
# www.blender.org
mtllib WoddenBox.mtl
o Cube
v 0.748722 1.000000 -0.748722
v -0.748722 1.000000 -0.748722
v -0.748722 1.000000 0.748722
v 0.748722 1.000000 0.748722
v 0.748722 -0.748722 1.000000
v 0.748722 0.748722 1.000000
v -0.748722 0.748722 1.000000
v -0.748722 -0.748722 1.000000
v -1.000000 -0.748722 0.748722
v -1.000000 0.748722 0.748722
v -1.000000 0.748722 -0.748722
v -1.000000 -0.748722 -0.748722
v -0.748722 -1.000000 -0.748722
v 0.748722 -1.000000 -0.748722
v 0.748722 -1.000000 0.748722
v -0.748722 -1.000000 0.748722
v 1.000000 -0.748722 -0.748722
v 1.000000 0.748722 -0.748722
v 1.000000 0.748722 0.748722
v 1.000000 -0.748722 0.748722
v -0.748722 -0.748722 -1.000000
v -0.748722 0.748722 -1.000000
v 0.748722 0.748722 -1.000000
v 0.748722 -0.748722 -1.000000
v -0.748722 0.878957 -0.748722
v 0.748722 0.878957 -0.748722
v 0.748722 0.878957 0.748722
v -0.748722 0.878957 0.748722
v 0.748722 0.748722 0.878957
v 0.748722 -0.748722 0.878957
v -0.748722 -0.748722 0.878957
v -0.748722 0.748722 0.878957
v -0.878957 -0.748722 0.748722
v -0.878957 0.748722 0.748722
v -0.878957 -0.748722 -0.748722
v -0.878957 0.748722 -0.748722
v 0.748722 -0.878957 -0.748722
v -0.748722 -0.878957 -0.748722
v -0.748722 -0.878957 0.748722
v 0.748722 -0.878957 0.748722
v 0.878957 0.748722 -0.748722
v 0.878957 -0.748722 -0.748722
v 0.878957 -0.748722 0.748722
v 0.878957 0.748722 0.748722
v -0.748722 0.748722 -0.878957
v -0.748722 -0.748722 -0.878957
v 0.748722 -0.748722 -0.878957
v 0.748722 0.748722 -0.878957
v 1.000000 0.949424 -1.000000
v 0.949424 1.000000 -0.949424
v 1.000000 0.949424 1.000000
v 0.949424 1.000000 0.949424
v -0.949424 1.000000 -0.949424
v -1.000000 0.949424 -1.000000
v -0.949424 1.000000 0.949424
v -1.000000 0.949424 1.000000
v 1.000000 -0.957001 -1.000000
v 0.957001 -1.000000 -0.957001
v 0.957001 -1.000000 0.957001
v 1.000000 -0.957001 1.000000
v -1.000000 -0.957001 -1.000000
v -0.957001 -1.000000 -0.957001
v -0.957001 -1.000000 0.957001
v -1.000000 -0.957001 1.000000
vt 0.656410 0.531410
vt 0.843590 0.531410
vt 0.843590 0.531410
vt 0.656410 0.531410
vt 0.593590 0.468590
vt 0.406410 0.468590
vt 0.406410 0.468590
vt 0.593590 0.468590
vt 0.593590 0.718590
vt 0.406410 0.718590
vt 0.406410 0.718590
vt 0.593590 0.718590
vt 0.593590 0.281410
vt 0.593590 0.281410
vt 0.343590 0.718590
vt 0.156410 0.718590
vt 0.156410 0.718590
vt 0.343590 0.718590
vt 0.593590 0.531410
vt 0.593590 0.531410
vt 0.631322 0.743678
vt 0.631322 0.506322
vt 0.656410 0.718590
vt 0.618678 0.000000
vt 0.618678 0.250000
vt 0.593590 0.218590
vt 0.593590 0.031410
vt 0.130375 0.744625
vt 0.130375 0.505375
vt 0.156410 0.531410
vt 0.369625 0.744625
vt 0.380375 0.250000
vt 0.380375 -0.000000
vt 0.406410 0.031410
vt 0.406410 0.218590
vt 0.868678 0.743678
vt 0.843590 0.718590
vt 0.618678 0.750000
vt 0.380375 0.750000
vt 0.868678 0.506322
vt 0.380375 0.500000
vt 0.406410 0.531410
vt 0.369625 0.505375
vt 0.343590 0.531410
vt 0.380375 1.000000
vt 0.406410 0.781410
vt 0.406410 0.968590
vt 0.406410 0.281410
vt 0.618678 0.500000
vt 0.618678 1.000000
vt 0.593590 0.968590
vt 0.593590 0.781410
vt 0.843590 0.718590
vt 0.656410 0.718590
vt 0.406410 0.781410
vt 0.593590 0.781410
vt 0.593590 0.968590
vt 0.406410 0.968590
vt 0.406410 0.031410
vt 0.593590 0.031410
vt 0.593590 0.218590
vt 0.406410 0.218590
vt 0.156410 0.531410
vt 0.343590 0.531410
vt 0.406410 0.531410
vt 0.406410 0.281410
vt 0.875000 0.750000
vt 0.625000 0.750000
vt 0.875000 0.500000
vt 0.625000 0.500000
vt 0.125000 0.750000
vt 0.125000 0.500000
vt 0.375000 0.500000
vt 0.375000 0.750000
vn 0.0000 0.0000 1.0000
vn -1.0000 0.0000 0.0000
vn 0.0000 0.0000 -1.0000
vn 0.0000 -1.0000 0.0000
vn 0.0000 1.0000 0.0000
vn 1.0000 0.0000 0.0000
vn 0.0000 0.7071 0.7071
vn 0.7071 0.7071 0.0000
vn -0.7071 0.7071 0.0000
vn 0.0000 0.7071 -0.7071
vn -0.7071 -0.7071 0.0000
vn 0.0000 -0.7071 -0.7071
vn 0.0000 -0.7071 0.7071
vn 0.7071 -0.7071 0.0000
usemtl Material
s off
f 1/1/1 2/2/1 25/3/1 26/4/1
f 23/5/2 24/6/2 47/7/2 48/8/2
f 19/9/3 20/10/3 43/11/3 44/12/3
f 22/13/4 23/5/4 48/8/4 45/14/4
f 15/15/3 16/16/3 39/17/3 40/18/3
f 18/19/4 19/9/4 44/12/4 41/20/4
f 52/21/5 50/22/5 1/1/5 4/23/5
f 56/24/2 54/25/2 11/26/2 10/27/2
f 63/28/4 62/29/4 13/30/4 16/16/4
f 59/31/4 63/28/4 16/16/4 15/15/4
f 61/32/2 64/33/2 9/34/2 12/35/2
f 55/36/5 52/21/5 4/23/5 3/37/5
f 51/38/6 60/39/6 20/10/6 19/9/6
f 64/33/2 56/24/2 10/27/2 9/34/2
f 53/40/5 55/36/5 3/37/5 2/2/5
f 54/25/2 61/32/2 12/35/2 11/26/2
f 60/39/6 57/41/6 17/42/6 20/10/6
f 62/29/4 58/43/4 14/44/4 13/30/4
f 64/45/1 60/39/1 5/46/1 8/47/1
f 61/32/3 54/25/3 22/13/3 21/48/3
f 54/25/3 49/49/3 23/5/3 22/13/3
f 50/22/5 53/40/5 2/2/5 1/1/5
f 51/38/1 56/50/1 7/51/1 6/52/1
f 49/49/3 57/41/3 24/6/3 23/5/3
f 56/50/1 64/45/1 8/47/1 7/51/1
f 60/39/1 51/38/1 6/52/1 5/46/1
f 49/49/6 51/38/6 19/9/6 18/19/6
f 58/43/4 59/31/4 15/15/4 14/44/4
f 26/4/5 25/3/5 28/53/5 27/54/5
f 30/55/1 29/56/1 32/57/1 31/58/1
f 33/59/2 34/60/2 36/61/2 35/62/2
f 38/63/4 37/64/4 40/18/4 39/17/4
f 42/65/6 41/20/6 44/12/6 43/11/6
f 46/66/3 45/14/3 48/8/3 47/7/3
f 5/46/2 6/52/2 29/56/2 30/55/2
f 4/23/2 1/1/2 26/4/2 27/54/2
f 9/34/3 10/27/3 34/60/3 33/59/3
f 8/47/5 5/46/5 30/55/5 31/58/5
f 13/30/1 14/44/1 37/64/1 38/63/1
f 2/2/6 3/37/6 28/53/6 25/3/6
f 12/35/5 9/34/5 33/59/5 35/62/5
f 17/42/1 18/19/1 41/20/1 42/65/1
f 6/52/4 7/51/4 32/57/4 29/56/4
f 16/16/6 13/30/6 38/63/6 39/17/6
f 21/48/6 22/13/6 45/14/6 46/66/6
f 3/37/3 4/23/3 27/54/3 28/53/3
f 10/27/4 11/26/4 36/61/4 34/60/4
f 20/10/5 17/42/5 42/65/5 43/11/5
f 7/51/6 8/47/6 31/58/6 32/57/6
f 14/44/2 15/15/2 40/18/2 37/64/2
f 24/6/5 21/48/5 46/66/5 47/7/5
f 11/26/1 12/35/1 35/62/1 36/61/1
f 52/21/7 55/36/7 56/67/7 51/68/7
f 50/22/8 52/21/8 51/38/8 49/49/8
f 55/36/9 53/40/9 54/69/9 56/67/9
f 53/40/10 50/22/10 49/70/10 54/69/10
f 57/41/6 49/49/6 18/19/6 17/42/6
f 62/29/11 63/28/11 64/71/11 61/72/11
f 58/43/12 62/29/12 61/72/12 57/73/12
f 63/28/13 59/31/13 60/74/13 64/71/13
f 59/31/14 58/43/14 57/41/14 60/39/14
f 57/41/3 61/32/3 21/48/3 24/6/3
