# Blender v2.83.5 OBJ File: ''
# www.blender.org
mtllib WoddenBox.mtl
o Cube
v 0.715597 1.000000 -0.715597
v -0.715597 1.000000 -0.715597
v -0.715597 1.000000 0.715597
v 0.715597 1.000000 0.715597
v 0.715597 -0.715597 1.000000
v 0.715597 0.715597 1.000000
v -0.715597 0.715597 1.000000
v -0.715597 -0.715597 1.000000
v -1.000000 -0.715597 0.715597
v -1.000000 0.715597 0.715597
v -1.000000 0.715597 -0.715597
v -1.000000 -0.715597 -0.715597
v -0.715597 -1.000000 -0.715597
v 0.715597 -1.000000 -0.715597
v 0.715597 -1.000000 0.715597
v -0.715597 -1.000000 0.715597
v 1.000000 -0.715597 -0.715597
v 1.000000 0.715597 -0.715597
v 1.000000 0.715597 0.715597
v 1.000000 -0.715597 0.715597
v -0.715597 -0.715597 -1.000000
v -0.715597 0.715597 -1.000000
v 0.715597 0.715597 -1.000000
v 0.715597 -0.715597 -1.000000
v -0.715597 0.897182 -0.715597
v 0.715597 0.897182 -0.715597
v 0.715597 0.897182 0.715597
v -0.715597 0.897182 0.715597
v 0.715597 0.715597 0.897182
v 0.715597 -0.715597 0.897182
v -0.715597 -0.715597 0.897182
v -0.715597 0.715597 0.897182
v -0.897182 -0.715597 0.715597
v -0.897182 0.715597 0.715597
v -0.897182 -0.715597 -0.715597
v -0.897182 0.715597 -0.715597
v 0.715597 -0.897182 -0.715597
v -0.715597 -0.897182 -0.715597
v -0.715597 -0.897182 0.715597
v 0.715597 -0.897182 0.715597
v 0.897182 0.715597 -0.715597
v 0.897182 -0.715597 -0.715597
v 0.897182 -0.715597 0.715597
v 0.897182 0.715597 0.715597
v -0.715597 0.715597 -0.897182
v -0.715597 -0.715597 -0.897182
v 0.715597 -0.715597 -0.897182
v 0.715597 0.715597 -0.897182
v 1.000000 0.942406 -1.000000
v 0.942406 1.000000 -0.942406
v 1.000000 0.942406 1.000000
v 0.942406 1.000000 0.942406
v -0.942406 1.000000 -0.942406
v -1.000000 0.942406 -1.000000
v -0.942406 1.000000 0.942406
v -1.000000 0.942406 1.000000
v 1.000000 -0.938957 -1.000000
v 0.938957 -1.000000 -0.938957
v 0.938957 -1.000000 0.938957
v 1.000000 -0.938957 1.000000
v -1.000000 -0.938957 -1.000000
v -0.938957 -1.000000 -0.938957
v -0.938957 -1.000000 0.938957
v -1.000000 -0.938957 1.000000
vt 0.589450 0.035550
vt 0.589450 0.214450
vt 0.589450 0.214450
vt 0.589450 0.035550
vt 0.839450 0.714450
vt 0.660550 0.714450
vt 0.660550 0.714450
vt 0.839450 0.714450
vt 0.410550 0.285550
vt 0.589450 0.285550
vt 0.589450 0.285550
vt 0.410550 0.285550
vt 0.160550 0.714450
vt 0.160550 0.535550
vt 0.160550 0.535550
vt 0.160550 0.714450
vt 0.589450 0.785550
vt 0.589450 0.964450
vt 0.589450 0.964450
vt 0.589450 0.785550
vt 0.410550 0.535550
vt 0.589450 0.535550
vt 0.589450 0.535550
vt 0.410550 0.535550
vt 0.632199 0.742801
vt 0.632199 0.507199
vt 0.660550 0.535550
vt 0.617801 0.000000
vt 0.617801 0.250000
vt 0.132630 0.742370
vt 0.132630 0.507630
vt 0.367370 0.742370
vt 0.339450 0.714450
vt 0.382630 0.250000
vt 0.382630 -0.000000
vt 0.410550 0.035550
vt 0.410550 0.214450
vt 0.867801 0.742801
vt 0.617801 0.750000
vt 0.382630 0.750000
vt 0.410550 0.714450
vt 0.589450 0.714450
vt 0.867801 0.507199
vt 0.839450 0.535550
vt 0.382630 0.500000
vt 0.367370 0.507630
vt 0.339450 0.535550
vt 0.382630 1.000000
vt 0.410550 0.785550
vt 0.410550 0.964450
vt 0.617801 0.500000
vt 0.589450 0.464450
vt 0.617801 1.000000
vt 0.410550 0.464450
vt 0.660550 0.535550
vt 0.839450 0.535550
vt 0.410550 0.785550
vt 0.410550 0.964450
vt 0.410550 0.035550
vt 0.410550 0.214450
vt 0.339450 0.535550
vt 0.339450 0.714450
vt 0.589450 0.714450
vt 0.410550 0.714450
vt 0.589450 0.464450
vt 0.410550 0.464450
vt 0.875000 0.750000
vt 0.625000 0.750000
vt 0.875000 0.500000
vt 0.625000 0.500000
vt 0.125000 0.750000
vt 0.125000 0.500000
vt 0.375000 0.500000
vt 0.375000 0.750000
vn 0.0000 -1.0000 0.0000
vn 0.0000 0.0000 -1.0000
vn 1.0000 0.0000 0.0000
vn 0.0000 0.0000 1.0000
vn 0.0000 1.0000 0.0000
vn -1.0000 0.0000 0.0000
vn 0.0000 0.7071 0.7071
vn 0.7071 0.7071 0.0000
vn -0.7071 0.7071 0.0000
vn 0.0000 0.7071 -0.7071
vn -0.7071 -0.7071 0.0000
vn 0.0000 -0.7071 -0.7071
vn 0.0000 -0.7071 0.7071
vn 0.7071 -0.7071 0.0000
usemtl Material
s off
f 10/1/1 11/2/1 36/3/1 34/4/1
f 3/5/2 4/6/2 27/7/2 28/8/2
f 21/9/3 22/10/3 45/11/3 46/12/3
f 16/13/3 13/14/3 38/15/3 39/16/3
f 6/17/1 7/18/1 32/19/1 29/20/1
f 17/21/4 18/22/4 41/23/4 42/24/4
f 52/25/5 50/26/5 1/27/5 4/6/5
f 56/28/6 54/29/6 11/2/6 10/1/6
f 63/30/1 62/31/1 13/14/1 16/13/1
f 59/32/1 63/30/1 16/13/1 15/33/1
f 61/34/6 64/35/6 9/36/6 12/37/6
f 55/38/5 52/25/5 4/6/5 3/5/5
f 51/39/3 60/40/3 20/41/3 19/42/3
f 64/35/6 56/28/6 10/1/6 9/36/6
f 53/43/5 55/38/5 3/5/5 2/44/5
f 54/29/6 61/34/6 12/37/6 11/2/6
f 60/40/3 57/45/3 17/21/3 20/41/3
f 62/31/1 58/46/1 14/47/1 13/14/1
f 64/48/4 60/40/4 5/49/4 8/50/4
f 61/34/2 54/29/2 22/10/2 21/9/2
f 54/29/2 49/51/2 23/52/2 22/10/2
f 50/26/5 53/43/5 2/44/5 1/27/5
f 51/39/4 56/53/4 7/18/4 6/17/4
f 49/51/2 57/45/2 24/54/2 23/52/2
f 56/53/4 64/48/4 8/50/4 7/18/4
f 60/40/4 51/39/4 6/17/4 5/49/4
f 49/51/3 51/39/3 19/42/3 18/22/3
f 58/46/1 59/32/1 15/33/1 14/47/1
f 26/55/5 25/56/5 28/8/5 27/7/5
f 30/57/4 29/20/4 32/19/4 31/58/4
f 33/59/6 34/4/6 36/3/6 35/60/6
f 38/15/1 37/61/1 40/62/1 39/16/1
f 42/24/3 41/23/3 44/63/3 43/64/3
f 46/12/2 45/11/2 48/65/2 47/66/2
f 20/41/5 17/21/5 42/24/5 43/64/5
f 7/18/3 8/50/3 31/58/3 32/19/3
f 14/47/6 15/33/6 40/62/6 37/61/6
f 24/54/5 21/9/5 46/12/5 47/66/5
f 11/2/4 12/37/4 35/60/4 36/3/4
f 18/22/1 19/42/1 44/63/1 41/23/1
f 15/33/2 16/13/2 39/16/2 40/62/2
f 22/10/1 23/52/1 48/65/1 45/11/1
f 19/42/2 20/41/2 43/64/2 44/63/2
f 23/52/6 24/54/6 47/66/6 48/65/6
f 1/27/4 2/44/4 25/56/4 26/55/4
f 5/49/6 6/17/6 29/20/6 30/57/6
f 4/6/6 1/27/6 26/55/6 27/7/6
f 9/36/2 10/1/2 34/4/2 33/59/2
f 8/50/5 5/49/5 30/57/5 31/58/5
f 13/14/4 14/47/4 37/61/4 38/15/4
f 2/44/3 3/5/3 28/8/3 25/56/3
f 12/37/5 9/36/5 33/59/5 35/60/5
f 52/25/7 55/38/7 56/67/7 51/68/7
f 50/26/8 52/25/8 51/39/8 49/51/8
f 55/38/9 53/43/9 54/69/9 56/67/9
f 53/43/10 50/26/10 49/70/10 54/69/10
f 57/45/3 49/51/3 18/22/3 17/21/3
f 62/31/11 63/30/11 64/71/11 61/72/11
f 58/46/12 62/31/12 61/72/12 57/73/12
f 63/30/13 59/32/13 60/74/13 64/71/13
f 59/32/14 58/46/14 57/45/14 60/40/14
f 57/45/2 61/34/2 21/9/2 24/54/2
